<mxfile host="Electron" modified="2024-02-17T15:00:00.063Z" agent="Mozilla/5.0 (Macintosh; Intel Mac OS X 10_15_7) AppleWebKit/537.36 (KHTML, like Gecko) draw.io/23.1.5 Chrome/120.0.6099.109 Electron/28.1.0 Safari/537.36" etag="KM_xr4LTFhXPRRMTp3m-" version="23.1.5" type="device">
  <diagram name="Page-1" id="7bckxp6A1BRrvFRm-x1-">
    <mxGraphModel dx="937" dy="653" grid="1" gridSize="10" guides="1" tooltips="1" connect="1" arrows="1" fold="1" page="1" pageScale="1" pageWidth="850" pageHeight="1100" math="0" shadow="0">
      <root>
        <mxCell id="0" />
        <mxCell id="1" parent="0" />
        <mxCell id="uPtcHXvR5QWXQvWITg4g-1" value="Google&lt;br&gt;Analytics" style="shape=cylinder3;whiteSpace=wrap;html=1;boundedLbl=1;backgroundOutline=1;size=15;fillColor=#fff2cc;strokeColor=#d6b656;" vertex="1" parent="1">
          <mxGeometry x="120" y="510" width="60" height="80" as="geometry" />
        </mxCell>
        <mxCell id="uPtcHXvR5QWXQvWITg4g-2" value="Sales" style="shape=cylinder3;whiteSpace=wrap;html=1;boundedLbl=1;backgroundOutline=1;size=15;fillColor=#f8cecc;strokeColor=#b85450;" vertex="1" parent="1">
          <mxGeometry x="120" y="270" width="60" height="80" as="geometry" />
        </mxCell>
        <mxCell id="uPtcHXvR5QWXQvWITg4g-3" value="CRM" style="shape=cylinder3;whiteSpace=wrap;html=1;boundedLbl=1;backgroundOutline=1;size=15;fillColor=#f5f5f5;fontColor=#333333;strokeColor=#666666;" vertex="1" parent="1">
          <mxGeometry x="120" y="390" width="60" height="80" as="geometry" />
        </mxCell>
        <mxCell id="uPtcHXvR5QWXQvWITg4g-4" value="" style="endArrow=none;html=1;rounded=0;" edge="1" parent="1">
          <mxGeometry width="50" height="50" relative="1" as="geometry">
            <mxPoint x="280" y="600" as="sourcePoint" />
            <mxPoint x="280" y="240" as="targetPoint" />
          </mxGeometry>
        </mxCell>
        <mxCell id="uPtcHXvR5QWXQvWITg4g-5" value="" style="endArrow=none;html=1;rounded=0;" edge="1" parent="1">
          <mxGeometry width="50" height="50" relative="1" as="geometry">
            <mxPoint x="510" y="600" as="sourcePoint" />
            <mxPoint x="510" y="240" as="targetPoint" />
          </mxGeometry>
        </mxCell>
        <mxCell id="uPtcHXvR5QWXQvWITg4g-6" value="&lt;h2 style=&quot;line-height: var(--jp-content-heading-line-height); margin: var(--jp-content-heading-margin-top) 0 var(--jp-content-heading-margin-bottom) 0; caret-color: rgba(0, 0, 0, 0.87); color: rgba(0, 0, 0, 0.87); font-family: system-ui, -apple-system, blinkmacsystemfont, &amp;quot;Segoe UI&amp;quot;, helvetica, arial, sans-serif, &amp;quot;Apple Color Emoji&amp;quot;, &amp;quot;Segoe UI Emoji&amp;quot;, &amp;quot;Segoe UI Symbol&amp;quot;; font-size: 26px;&quot; id=&quot;Архитектура-Аналитического-Решения&quot;&gt;&lt;font style=&quot;font-size: 26px;&quot;&gt;Архитектура Аналитического Решения&lt;a style=&quot;text-decoration-line: none; visibility: hidden; margin-left: 8px;&quot; class=&quot;jp-InternalAnchorLink&quot; href=&quot;http://localhost:8888/lab/tree/Desktop/DataAnalitycs/Getting%20Started%20with%20Analytics%20(Data)%20Engineering/data-engineering/DE-101%20Modules/Module01/DE%20-%20101%20Lab%201.1/readme.md#%D0%90%D1%80%D1%85%D0%B8%D1%82%D0%B5%D0%BA%D1%82%D1%83%D1%80%D0%B0-%D0%90%D0%BD%D0%B0%D0%BB%D0%B8%D1%82%D0%B8%D1%87%D0%B5%D1%81%D0%BA%D0%BE%D0%B3%D0%BE-%D0%A0%D0%B5%D1%88%D0%B5%D0%BD%D0%B8%D1%8F&quot; target=&quot;_self&quot;&gt;&lt;/a&gt;&lt;/font&gt;&lt;/h2&gt;&lt;h1 style=&quot;font-size: 18px;&quot;&gt;&lt;p style=&quot;margin: 0px 0px 1em; caret-color: rgba(0, 0, 0, 0.87); color: rgba(0, 0, 0, 0.87); font-family: system-ui, -apple-system, blinkmacsystemfont, &amp;quot;Segoe UI&amp;quot;, helvetica, arial, sans-serif, &amp;quot;Apple Color Emoji&amp;quot;, &amp;quot;Segoe UI Emoji&amp;quot;, &amp;quot;Segoe UI Symbol&amp;quot;;&quot;&gt;&lt;span style=&quot;font-weight: normal;&quot;&gt;Необходимо нарисовать верхнеуровневую архитектуру аналитического решения по примеру теоретического видео, где я рассказывал об архитектуре ламоды. Необходимо использовать:&lt;/span&gt;&lt;/p&gt;&lt;ul style=&quot;list-style: outside; margin-bottom: 1em; padding-left: 2em; caret-color: rgba(0, 0, 0, 0.87); color: rgba(0, 0, 0, 0.87); font-family: system-ui, -apple-system, blinkmacsystemfont, &amp;quot;Segoe UI&amp;quot;, helvetica, arial, sans-serif, &amp;quot;Apple Color Emoji&amp;quot;, &amp;quot;Segoe UI Emoji&amp;quot;, &amp;quot;Segoe UI Symbol&amp;quot;;&quot;&gt;&lt;li&gt;&lt;span style=&quot;font-weight: normal;&quot;&gt;Source Layer - слой источников данных&lt;/span&gt;&lt;/li&gt;&lt;li style=&quot;font-weight: 400;&quot;&gt;Storage Layer - слой хранения данных&amp;nbsp;&lt;/li&gt;&lt;li style=&quot;font-weight: 400;&quot;&gt;Business Layer - слой для доступа к данным бизнес пользователей&lt;/li&gt;&lt;/ul&gt;&lt;/h1&gt;" style="text;html=1;spacing=5;spacingTop=-20;whiteSpace=wrap;overflow=hidden;rounded=0;" vertex="1" parent="1">
          <mxGeometry x="10" y="20" width="850" height="170" as="geometry" />
        </mxCell>
        <mxCell id="uPtcHXvR5QWXQvWITg4g-7" value="Storage" style="text;html=1;align=center;verticalAlign=middle;rounded=0;fontSize=20;" vertex="1" parent="1">
          <mxGeometry x="360" y="200" width="60" height="30" as="geometry" />
        </mxCell>
        <mxCell id="uPtcHXvR5QWXQvWITg4g-8" value="Source" style="text;align=center;verticalAlign=middle;rounded=0;fontSize=20;html=1;" vertex="1" parent="1">
          <mxGeometry x="130" y="200" width="60" height="30" as="geometry" />
        </mxCell>
        <mxCell id="uPtcHXvR5QWXQvWITg4g-10" value="&lt;font style=&quot;font-size: 20px;&quot;&gt;Business&lt;/font&gt;" style="text;html=1;align=center;verticalAlign=middle;resizable=0;points=[];autosize=1;strokeColor=none;fillColor=none;" vertex="1" parent="1">
          <mxGeometry x="550" y="195" width="100" height="40" as="geometry" />
        </mxCell>
        <mxCell id="uPtcHXvR5QWXQvWITg4g-11" value="" style="endArrow=none;html=1;rounded=0;" edge="1" parent="1">
          <mxGeometry width="50" height="50" relative="1" as="geometry">
            <mxPoint x="80" y="240" as="sourcePoint" />
            <mxPoint x="680" y="240" as="targetPoint" />
          </mxGeometry>
        </mxCell>
        <mxCell id="uPtcHXvR5QWXQvWITg4g-13" value="" style="shape=flexArrow;endArrow=classic;html=1;rounded=0;width=23;endSize=12;" edge="1" parent="1">
          <mxGeometry width="50" height="50" relative="1" as="geometry">
            <mxPoint x="240" y="429.5" as="sourcePoint" />
            <mxPoint x="330" y="429.5" as="targetPoint" />
          </mxGeometry>
        </mxCell>
        <mxCell id="uPtcHXvR5QWXQvWITg4g-14" value="ETL / ELT" style="edgeLabel;html=1;align=center;verticalAlign=middle;resizable=0;points=[];" vertex="1" connectable="0" parent="uPtcHXvR5QWXQvWITg4g-13">
          <mxGeometry x="-0.59" relative="1" as="geometry">
            <mxPoint x="12" y="-1" as="offset" />
          </mxGeometry>
        </mxCell>
        <mxCell id="uPtcHXvR5QWXQvWITg4g-15" value="Data WareHouse" style="shape=cylinder3;whiteSpace=wrap;html=1;boundedLbl=1;backgroundOutline=1;size=15;fillColor=#d5e8d4;strokeColor=#82b366;" vertex="1" parent="1">
          <mxGeometry x="337.5" y="250" width="120" height="160" as="geometry" />
        </mxCell>
        <mxCell id="uPtcHXvR5QWXQvWITg4g-16" value="Customer" style="shape=umlActor;verticalLabelPosition=bottom;verticalAlign=top;html=1;outlineConnect=0;" vertex="1" parent="1">
          <mxGeometry x="30" y="210" width="30" height="60" as="geometry" />
        </mxCell>
        <mxCell id="uPtcHXvR5QWXQvWITg4g-20" value="" style="curved=1;endArrow=classic;html=1;rounded=0;" edge="1" parent="1">
          <mxGeometry width="50" height="50" relative="1" as="geometry">
            <mxPoint x="40" y="300" as="sourcePoint" />
            <mxPoint x="110" y="340" as="targetPoint" />
            <Array as="points">
              <mxPoint x="40" y="350" />
              <mxPoint x="80" y="370" />
            </Array>
          </mxGeometry>
        </mxCell>
        <mxCell id="uPtcHXvR5QWXQvWITg4g-21" value="Data Lake" style="shape=cylinder3;whiteSpace=wrap;html=1;boundedLbl=1;backgroundOutline=1;size=15;fillColor=#dae8fc;strokeColor=#6c8ebf;" vertex="1" parent="1">
          <mxGeometry x="336.25" y="470" width="122.5" height="110" as="geometry" />
        </mxCell>
        <mxCell id="uPtcHXvR5QWXQvWITg4g-22" style="edgeStyle=orthogonalEdgeStyle;rounded=0;orthogonalLoop=1;jettySize=auto;html=1;exitX=0.5;exitY=1;exitDx=0;exitDy=0;exitPerimeter=0;" edge="1" parent="1" source="uPtcHXvR5QWXQvWITg4g-15" target="uPtcHXvR5QWXQvWITg4g-15">
          <mxGeometry relative="1" as="geometry" />
        </mxCell>
        <mxCell id="uPtcHXvR5QWXQvWITg4g-24" value="" style="shape=flexArrow;endArrow=classic;html=1;rounded=0;width=23;endSize=12;" edge="1" parent="1">
          <mxGeometry width="50" height="50" relative="1" as="geometry">
            <mxPoint x="470" y="429.5" as="sourcePoint" />
            <mxPoint x="560" y="429.5" as="targetPoint" />
          </mxGeometry>
        </mxCell>
        <mxCell id="uPtcHXvR5QWXQvWITg4g-27" value="&amp;nbsp; &amp;nbsp; &amp;nbsp; API" style="edgeLabel;html=1;align=center;verticalAlign=middle;resizable=0;points=[];" vertex="1" connectable="0" parent="uPtcHXvR5QWXQvWITg4g-24">
          <mxGeometry x="-0.6" y="3" relative="1" as="geometry">
            <mxPoint x="12" y="4" as="offset" />
          </mxGeometry>
        </mxCell>
        <mxCell id="uPtcHXvR5QWXQvWITg4g-29" value="" style="endArrow=none;html=1;rounded=0;" edge="1" parent="1">
          <mxGeometry width="50" height="50" relative="1" as="geometry">
            <mxPoint x="80" y="600" as="sourcePoint" />
            <mxPoint x="680" y="600" as="targetPoint" />
          </mxGeometry>
        </mxCell>
        <mxCell id="uPtcHXvR5QWXQvWITg4g-30" value="Excel" style="sketch=0;pointerEvents=1;shadow=0;dashed=0;html=1;strokeColor=none;fillColor=#505050;labelPosition=center;verticalLabelPosition=bottom;verticalAlign=top;outlineConnect=0;align=center;shape=mxgraph.office.services.excel_services;" vertex="1" parent="1">
          <mxGeometry x="585.5" y="310" width="60" height="49" as="geometry" />
        </mxCell>
        <mxCell id="uPtcHXvR5QWXQvWITg4g-31" value="Power BI" style="image;aspect=fixed;html=1;points=[];align=center;fontSize=12;image=img/lib/azure2/analytics/Power_BI_Embedded.svg;" vertex="1" parent="1">
          <mxGeometry x="585.5" y="442" width="51" height="68" as="geometry" />
        </mxCell>
      </root>
    </mxGraphModel>
  </diagram>
</mxfile>
